<svg width="423" height="135" viewBox="0 0 423 135" fill="none" xmlns="http://www.w3.org/2000/svg">
<g filter="url(#filter0_dd_14909_831)">
<path d="M15.9253 51L34.2207 10.375H48.2548L66.5503 51H56.6639L52.8003 42.4205H29.6753L25.8116 51H15.9253ZM32.9707 35.0341H49.5048L41.6071 17.4773H40.8684L32.9707 35.0341ZM69.2851 51.2841V44.75H97.126C98.7169 44.75 99.5123 43.8598 99.5123 42.0795C99.5123 40.3371 98.7169 39.4659 97.126 39.4659H79.1146C75.7434 39.4659 73.1866 38.7083 71.4442 37.1932C69.7017 35.6402 68.8305 33.4242 68.8305 30.5455C68.8305 27.6288 69.7017 25.3939 71.4442 23.8409C73.2245 22.25 75.7813 21.4545 79.1146 21.4545H105.024V27.9886H79.5123C77.8836 27.9886 77.0692 28.7841 77.0692 30.375C77.0692 31.1705 77.2964 31.7955 77.751 32.25C78.2055 32.7045 78.7926 32.9318 79.5123 32.9318H98.6032C101.558 32.9318 103.812 33.7083 105.365 35.2614C106.956 36.7765 107.751 38.9924 107.751 41.9091C107.751 44.8636 106.956 47.1742 105.365 48.8409C103.774 50.4697 101.52 51.2841 98.6032 51.2841H69.2851ZM111.621 51.2841V44.75H139.462C141.053 44.75 141.849 43.8598 141.849 42.0795C141.849 40.3371 141.053 39.4659 139.462 39.4659H121.451C118.08 39.4659 115.523 38.7083 113.78 37.1932C112.038 35.6402 111.167 33.4242 111.167 30.5455C111.167 27.6288 112.038 25.3939 113.78 23.8409C115.561 22.25 118.117 21.4545 121.451 21.4545H147.36V27.9886H121.849C120.22 27.9886 119.405 28.7841 119.405 30.375C119.405 31.1705 119.633 31.7955 120.087 32.25C120.542 32.7045 121.129 32.9318 121.849 32.9318H140.939C143.894 32.9318 146.148 33.7083 147.701 35.2614C149.292 36.7765 150.087 38.9924 150.087 41.9091C150.087 44.8636 149.292 47.1742 147.701 48.8409C146.11 50.4697 143.856 51.2841 140.939 51.2841H111.621ZM169.923 51.2841C164.848 51.2841 160.889 50.0341 158.048 47.5341C155.207 44.9962 153.787 41.2841 153.787 36.3977C153.787 31.4735 155.207 27.7614 158.048 25.2614C160.889 22.7235 164.848 21.4545 169.923 21.4545H184.128C187.461 21.4545 189.999 22.25 191.742 23.8409C193.522 25.3939 194.412 27.6288 194.412 30.5455C194.412 36.4924 190.984 39.4659 184.128 39.4659H162.651C163.446 42.9886 165.87 44.75 169.923 44.75H192.935V51.2841H169.923ZM169.923 27.9886C166.022 27.9886 163.617 29.6364 162.707 32.9318H183.73C184.488 32.9318 185.075 32.7045 185.492 32.25C185.946 31.7955 186.173 31.1705 186.173 30.375C186.173 28.7841 185.359 27.9886 183.73 27.9886H169.923ZM215.872 51C212.576 51 210.152 50.1856 208.599 48.5568C207.046 46.8902 206.269 44.7121 206.269 42.0227V28.2727H197.803V21.7386H206.269V12.7614H214.508V21.7386H226.667V28.2727H214.508V41C214.508 43.3106 215.644 44.4659 217.917 44.4659H228.258V51H215.872ZM233.346 51V10.375H240.05L258.232 10.3182C265.581 10.3182 271.281 12.0417 275.334 15.4886C279.387 18.9356 281.414 23.9924 281.414 30.6591C281.414 37.3258 279.387 42.3826 275.334 45.8295C271.281 49.2765 265.581 51 258.232 51H233.346ZM257.607 17.7045H242.437V43.6136H257.607C262.38 43.6136 265.997 42.572 268.459 40.4886C270.922 38.4053 272.153 35.1288 272.153 30.6591C272.153 26.1515 270.922 22.875 268.459 20.8295C265.997 18.7462 262.38 17.7045 257.607 17.7045ZM294.044 51C290.976 51 288.627 50.2235 286.999 48.6705C285.37 47.1174 284.555 44.9015 284.555 42.0227C284.555 39.1818 285.37 36.9848 286.999 35.4318C288.627 33.8788 290.976 33.1023 294.044 33.1023H315.862V31.7386C315.862 29.428 314.726 28.2727 312.453 28.2727H288.362V21.7386H314.612C318.059 21.7386 320.502 22.5341 321.942 24.125C323.381 25.678 324.101 27.875 324.101 30.7159V51H294.044ZM295.521 44.4659H315.862V39.6364H295.521C294.802 39.6364 294.233 39.8636 293.817 40.3182C293.438 40.7348 293.249 41.303 293.249 42.0227C293.249 42.7424 293.438 43.3295 293.817 43.7841C294.233 44.2386 294.802 44.4659 295.521 44.4659ZM329.406 51.2841V44.75H357.247C358.838 44.75 359.633 43.8598 359.633 42.0795C359.633 40.3371 358.838 39.4659 357.247 39.4659H339.235C335.864 39.4659 333.307 38.7083 331.565 37.1932C329.822 35.6402 328.951 33.4242 328.951 30.5455C328.951 27.6288 329.822 25.3939 331.565 23.8409C333.345 22.25 335.902 21.4545 339.235 21.4545H365.144V27.9886H339.633C338.004 27.9886 337.19 28.7841 337.19 30.375C337.19 31.1705 337.417 31.7955 337.872 32.25C338.326 32.7045 338.913 32.9318 339.633 32.9318H358.724C361.679 32.9318 363.932 33.7083 365.485 35.2614C367.076 36.7765 367.872 38.9924 367.872 41.9091C367.872 44.8636 367.076 47.1742 365.485 48.8409C363.894 50.4697 361.641 51.2841 358.724 51.2841H329.406ZM372.708 51V10.375H380.947V21.7386H398.219C401.553 21.7386 403.977 22.572 405.492 24.2386C407.045 25.8674 407.822 28.0265 407.822 30.7159V51H399.583V31.6818C399.583 29.4091 398.447 28.2727 396.174 28.2727H380.947V51H372.708ZM24.0595 102.27V95.25L55.1095 95.304C56.6935 95.304 57.8995 94.944 58.7275 94.224C59.5915 93.468 60.0235 92.262 60.0235 90.606C60.0235 88.95 59.5915 87.762 58.7275 87.042C57.8995 86.286 56.6935 85.908 55.1095 85.908H35.7775C31.7815 85.908 28.6675 84.954 26.4355 83.046C24.2395 81.102 23.1415 78.258 23.1415 74.514C23.1415 70.77 24.2395 67.944 26.4355 66.036C28.6675 64.092 31.7815 63.12 35.7775 63.12H66.1255V70.14L36.6955 70.086C35.1475 70.086 33.9415 70.446 33.0775 71.166C32.2135 71.85 31.7815 72.966 31.7815 74.514C31.7815 76.062 32.2135 77.196 33.0775 77.916C33.9415 78.6 35.1475 78.942 36.6955 78.942H56.0275C60.0235 78.942 63.1195 79.932 65.3155 81.912C67.5475 83.856 68.6635 86.754 68.6635 90.606C68.6635 94.422 67.5475 97.32 65.3155 99.3C63.1195 101.28 60.0235 102.27 56.0275 102.27H24.0595ZM82.1268 102C78.9588 102 76.6368 101.208 75.1608 99.624C73.7208 98.04 73.0008 95.988 73.0008 93.468V74.19H80.8308V92.55C80.8308 94.71 81.9108 95.79 84.0708 95.79H95.3028C97.4628 95.79 98.5428 94.71 98.5428 92.55V74.19H106.373V93.468C106.373 95.988 105.635 98.04 104.159 99.624C102.719 101.208 100.415 102 97.2468 102H82.1268ZM112.031 114.15V74.19H132.011C136.835 74.19 140.597 75.378 143.297 77.754C145.997 80.13 147.347 83.568 147.347 88.068C147.347 92.604 145.997 96.06 143.297 98.436C140.597 100.812 136.835 102 132.011 102H119.861V114.15H112.031ZM132.011 80.4H119.861V95.79H132.011C134.351 95.79 136.133 95.16 137.357 93.9C138.617 92.604 139.247 90.66 139.247 88.068C139.247 85.512 138.617 83.604 137.357 82.344C136.133 81.048 134.351 80.4 132.011 80.4ZM166.47 102.27C161.646 102.27 157.884 101.082 155.184 98.706C152.484 96.294 151.134 92.766 151.134 88.122C151.134 83.442 152.484 79.914 155.184 77.538C157.884 75.126 161.646 73.92 166.47 73.92H179.97C183.138 73.92 185.55 74.676 187.206 76.188C188.898 77.664 189.744 79.788 189.744 82.56C189.744 88.212 186.486 91.038 179.97 91.038H159.558C160.314 94.386 162.618 96.06 166.47 96.06H188.34V102.27H166.47ZM166.47 80.13C162.762 80.13 160.476 81.696 159.612 84.828H179.592C180.312 84.828 180.87 84.612 181.266 84.18C181.698 83.748 181.914 83.154 181.914 82.398C181.914 80.886 181.14 80.13 179.592 80.13H166.47ZM194.613 102V74.19H215.889C219.021 74.19 221.325 74.982 222.801 76.566C224.277 78.114 225.015 80.166 225.015 82.722V88.5H217.077V83.694C217.077 81.534 215.997 80.454 213.837 80.454H202.551V102H194.613ZM228.88 102.27V95.25L259.93 95.304C261.514 95.304 262.72 94.944 263.548 94.224C264.412 93.468 264.844 92.262 264.844 90.606C264.844 88.95 264.412 87.762 263.548 87.042C262.72 86.286 261.514 85.908 259.93 85.908H240.598C236.602 85.908 233.488 84.954 231.256 83.046C229.06 81.102 227.962 78.258 227.962 74.514C227.962 70.77 229.06 67.944 231.256 66.036C233.488 64.092 236.602 63.12 240.598 63.12H270.946V70.14L241.516 70.086C239.968 70.086 238.762 70.446 237.898 71.166C237.034 71.85 236.602 72.966 236.602 74.514C236.602 76.062 237.034 77.196 237.898 77.916C238.762 78.6 239.968 78.942 241.516 78.942H260.848C264.844 78.942 267.94 79.932 270.136 81.912C272.368 83.856 273.484 86.754 273.484 90.606C273.484 94.422 272.368 97.32 270.136 99.3C267.94 101.28 264.844 102.27 260.848 102.27H228.88ZM279.387 102L276.741 74.19H284.625L286.461 95.304L294.831 91.524V74.19H302.661V91.578L311.031 95.304L312.867 74.19H320.751L318.105 102H310.707L298.719 96.708L286.785 102H279.387ZM332.739 102C329.823 102 327.591 101.262 326.043 99.786C324.495 98.31 323.721 96.204 323.721 93.468C323.721 90.768 324.495 88.68 326.043 87.204C327.591 85.728 329.823 84.99 332.739 84.99H353.475V83.694C353.475 81.498 352.395 80.4 350.235 80.4H327.339V74.19H352.287C355.563 74.19 357.885 74.946 359.253 76.458C360.621 77.934 361.305 80.022 361.305 82.722V102H332.739ZM334.143 95.79H353.475V91.2H334.143C333.459 91.2 332.919 91.416 332.523 91.848C332.163 92.244 331.983 92.784 331.983 93.468C331.983 94.152 332.163 94.71 332.523 95.142C332.919 95.574 333.459 95.79 334.143 95.79ZM367.265 114.15V74.19H387.245C392.069 74.19 395.831 75.378 398.531 77.754C401.231 80.13 402.581 83.568 402.581 88.068C402.581 92.604 401.231 96.06 398.531 98.436C395.831 100.812 392.069 102 387.245 102H375.095V114.15H367.265ZM387.245 80.4H375.095V95.79H387.245C389.585 95.79 391.367 95.16 392.591 93.9C393.851 92.604 394.481 90.66 394.481 88.068C394.481 85.512 393.851 83.604 392.591 82.344C391.367 81.048 389.585 80.4 387.245 80.4Z" fill="url(#paint0_linear_14909_831)"/>
</g>
<defs>
<filter id="filter0_dd_14909_831" x="0.811657" y="0.886358" width="422.124" height="134.059" filterUnits="userSpaceOnUse" color-interpolation-filters="sRGB">
<feFlood flood-opacity="0" result="BackgroundImageFix"/>
<feColorMatrix in="SourceAlpha" type="matrix" values="0 0 0 0 0 0 0 0 0 0 0 0 0 0 0 0 0 0 127 0" result="hardAlpha"/>
<feOffset dy="5.68182"/>
<feGaussianBlur stdDeviation="7.55682"/>
<feComposite in2="hardAlpha" operator="out"/>
<feColorMatrix type="matrix" values="0 0 0 0 0.105882 0 0 0 0 0.807843 0 0 0 0 0.603922 0 0 0 0.28 0"/>
<feBlend mode="normal" in2="BackgroundImageFix" result="effect1_dropShadow_14909_831"/>
<feColorMatrix in="SourceAlpha" type="matrix" values="0 0 0 0 0 0 0 0 0 0 0 0 0 0 0 0 0 0 127 0" result="hardAlpha"/>
<feOffset dy="4.54545"/>
<feGaussianBlur stdDeviation="2.27273"/>
<feComposite in2="hardAlpha" operator="out"/>
<feColorMatrix type="matrix" values="0 0 0 0 0 0 0 0 0 0 0 0 0 0 0 0 0 0 0.25 0"/>
<feBlend mode="normal" in2="effect1_dropShadow_14909_831" result="effect2_dropShadow_14909_831"/>
<feBlend mode="normal" in="SourceGraphic" in2="effect2_dropShadow_14909_831" result="shape"/>
</filter>
<linearGradient id="paint0_linear_14909_831" x1="213" y1="5" x2="213" y2="110" gradientUnits="userSpaceOnUse">
<stop stop-color="#19D699"/>
<stop offset="0.453125" stop-color="#1FAA9D"/>
<stop offset="0.479067" stop-color="#1FA89D"/>
<stop offset="0.479167" stop-color="#1FA79D"/>
<stop offset="0.515625" stop-color="#20A49E"/>
<stop offset="0.536458" stop-color="#20A29E"/>
<stop offset="0.619792" stop-color="#219A9F"/>
<stop offset="0.692708" stop-color="#2293A0"/>
<stop offset="0.734375" stop-color="#228FA0"/>
<stop offset="0.78125" stop-color="#238AA0"/>
<stop offset="0.802083" stop-color="#2388A1"/>
<stop offset="1" stop-color="#2675A3"/>
</linearGradient>
</defs>
</svg>
